<svg viewBox="0 0 1200 675" xmlns="http://www.w3.org/2000/svg"><mask id="b" x="0" y="0" width="1200" height="675"><path fill="url(#a)" d="M0 0h1200v675H0z"/></mask><path fill="#102339" d="M0 0h1200v675H0z"/><g style="transform-origin:center center" stroke="#ff5e0078" stroke-width=".24" mask="url(#b)"><path fill="none" d="m0 0 102.912 43.684L59.23 146.596l-102.913-43.684zM102.912 43.684l102.913 43.683L162.14 190.28 59.23 146.596zM205.825 87.367l102.912 43.684-43.683 102.913L162.14 190.28z" stroke-width=".312"/><path fill="#ff5e0044" d="m308.737 131.051 102.913 43.684-43.684 102.912-102.912-43.683z" stroke-width=".312"/><path fill="#ff5e0039" d="m411.65 174.735 102.912 43.684-43.684 102.912-102.912-43.684z" stroke-width=".312"/><path fill="#ff5e0075" d="m514.562 218.419 102.913 43.683-43.684 102.913-102.913-43.684z" stroke-width=".312"/><path fill="none" d="m617.475 262.102 102.912 43.684L676.703 408.7l-102.912-43.684z" stroke-width=".312"/><path fill="none" d="M720.387 305.786 823.3 349.47l-43.684 102.912L676.703 408.7z" stroke-width=".312"/><path fill="none" d="m823.3 349.47 102.912 43.684-43.684 102.912-102.912-43.684z" stroke-width=".312"/><path fill="#ff5e004d" d="m926.212 393.154 102.912 43.683-43.683 102.913-102.913-43.684z" stroke-width=".312"/><path fill="none" d="m1029.124 436.837 102.913 43.684-43.684 102.913-102.912-43.684z" stroke-width=".312"/><path fill="#ff5e0065" d="m1132.037 480.521 102.912 43.684-43.683 102.912-102.913-43.683z" stroke-width=".312"/><path fill="none" d="m1234.95 524.205 102.912 43.684-43.684 102.912-102.912-43.684z" stroke-width=".312"/><path fill="#ff5e001b" d="m1337.862 567.889 102.912 43.683-43.684 102.913-102.912-43.684z" stroke-width=".312"/><path fill="none" d="M-43.684 102.912 59.23 146.596 15.545 249.51l-102.912-43.684z" stroke-width=".312"/><path fill="none" d="M59.229 146.596 162.14 190.28l-43.684 102.912L15.545 249.51z" stroke-width=".312"/><path fill="#ff5e0041" d="m162.141 190.28 102.913 43.684-43.684 102.912-102.913-43.684z" stroke-width=".312"/><path fill="#ff5e005f" d="m265.054 233.964 102.912 43.683-43.684 102.913-102.912-43.684z" stroke-width=".312"/><path fill="none" d="m367.966 277.647 102.912 43.684-43.683 102.913-102.913-43.684z" stroke-width=".312"/><path fill="none" d="m470.878 321.331 102.913 43.684-43.684 102.912-102.912-43.683z" stroke-width=".312"/><path fill="none" d="m573.79 365.015 102.913 43.684L633.02 511.61l-102.913-43.684zM676.703 408.699l102.913 43.683-43.684 102.913L633.02 511.61zM779.616 452.382l102.912 43.684-43.683 102.913-102.913-43.684z" stroke-width=".312"/><path fill="#ff5e002a" d="m882.528 496.066 102.913 43.684-43.684 102.912-102.912-43.683z" stroke-width=".312"/><path fill="none" d="m985.44 539.75 102.913 43.684-43.684 102.912-102.912-43.684z" stroke-width=".312"/><path fill="#ff5e0001" d="m1088.353 583.434 102.913 43.683-43.684 102.913-102.913-43.684z" stroke-width=".312"/><path fill="#ff5e000d" d="m1191.266 627.117 102.912 43.684-43.684 102.913-102.912-43.684z" stroke-width=".312"/><path fill="none" d="m1294.178 670.801 102.912 43.684-43.683 102.912-102.913-43.683zM-87.367 205.825l102.912 43.684-43.684 102.912-102.912-43.684z" stroke-width=".312"/><path fill="none" d="m15.545 249.509 102.912 43.683-43.683 102.913L-28.14 352.42z" stroke-width=".312"/><path fill="#ff5e005b" d="m118.457 293.192 102.913 43.684-43.684 102.913-102.912-43.684z" stroke-width=".312"/><path fill="none" d="m221.37 336.876 102.912 43.684L280.6 483.472 177.686 439.79z" stroke-width=".312"/><path fill="none" d="m324.282 380.56 102.913 43.684-43.684 102.912-102.912-43.684z" stroke-width=".312"/><path fill="none" d="m427.195 424.244 102.912 43.683-43.684 102.913-102.912-43.684zM530.107 467.927l102.913 43.684-43.684 102.913-102.913-43.684z" stroke-width=".312"/><path fill="#ff5e0075" d="m633.02 511.611 102.912 43.684-43.684 102.912-102.912-43.683z" stroke-width=".312"/><path fill="#ff5e0034" d="m735.932 555.295 102.913 43.684L795.16 701.89l-102.913-43.684z" stroke-width=".312"/><path fill="none" d="m838.845 598.979 102.912 43.683-43.684 102.913-102.912-43.684z" stroke-width=".312"/><path fill="#ff5e000d" d="m941.757 642.662 102.912 43.684-43.683 102.912-102.913-43.683z" stroke-width=".312"/><path fill="#ff5e0023" d="m1044.67 686.346 102.912 43.684-43.684 102.912-102.912-43.684z" stroke-width=".312"/><path fill="none" d="m1147.582 730.03 102.912 43.684-43.683 102.912-102.913-43.684z" stroke-width=".312"/><path fill="none" d="m1250.494 773.714 102.913 43.683-43.684 102.913-102.912-43.684zM-131.051 308.737l102.912 43.684-43.684 102.913-102.912-43.684z" stroke-width=".312"/><path fill="none" d="m-28.139 352.421 102.913 43.684L31.09 499.017l-102.913-43.683z" stroke-width=".312"/><path fill="none" d="m74.774 396.105 102.912 43.684L134.002 542.7 31.09 499.017z" stroke-width=".312"/><path fill="none" d="M177.686 439.789 280.6 483.472l-43.684 102.913L134.002 542.7z" stroke-width=".312"/><path fill="none" d="m280.599 483.472 102.912 43.684-43.684 102.912-102.912-43.683zM383.511 527.156l102.912 43.684-43.683 102.912-102.913-43.684zM486.423 570.84l102.913 43.684-43.684 102.912-102.912-43.684z" stroke-width=".312"/><path fill="none" d="m589.336 614.524 102.912 43.683-43.683 102.913-102.913-43.684zM692.248 658.207l102.913 43.684-43.684 102.912-102.912-43.683z" stroke-width=".312"/><path fill="#ff5e0076" d="m795.16 701.891 102.913 43.684-43.684 102.912-102.912-43.684z" stroke-width=".312"/><path fill="none" d="m898.073 745.575 102.913 43.683-43.684 102.913-102.913-43.684z" stroke-width=".312"/><path fill="none" d="m1000.986 789.258 102.912 43.684-43.684 102.913-102.912-43.684z" stroke-width=".312"/><path fill="none" d="m1103.898 832.942 102.913 43.684-43.684 102.912-102.913-43.683z" stroke-width=".312"/><path fill="none" d="m1206.81 876.626 102.913 43.684-43.684 102.912-102.912-43.684zM-174.735 411.65l102.912 43.684-43.683 102.912-102.913-43.684z" stroke-width=".312"/><path fill="#ff5e0049" d="M-71.823 455.334 31.09 499.017-12.594 601.93l-102.912-43.684z" stroke-width=".312"/><path fill="none" d="m31.09 499.017 102.912 43.684L90.32 645.613-12.594 601.93z" stroke-width=".312"/><path fill="#ff5e0009" d="m134.002 542.701 102.913 43.684-43.684 102.912L90.32 645.613z" stroke-width=".312"/><path fill="#ff5e0070" d="m236.915 586.385 102.912 43.683-43.683 102.913-102.913-43.684z" stroke-width=".312"/><path fill="none" d="m339.827 630.068 102.913 43.684-43.684 102.913-102.912-43.684zM442.74 673.752l102.912 43.684-43.684 102.912-102.912-43.683z" stroke-width=".312"/><path fill="#ff5e0056" d="m545.652 717.436 102.913 43.684-43.684 102.912-102.913-43.684z" stroke-width=".312"/><path fill="none" d="m648.565 761.12 102.912 43.683-43.684 102.913-102.912-43.684z" stroke-width=".312"/><path fill="#ff5e0030" d="m751.477 804.803 102.912 43.684L810.706 951.4l-102.913-43.684z" stroke-width=".312"/><path fill="none" d="m854.39 848.487 102.912 43.684-43.684 102.912L810.706 951.4z" stroke-width=".312"/><path fill="none" d="m957.302 892.17 102.912 43.685-43.683 102.912-102.913-43.684z" stroke-width=".312"/><path fill="none" d="m1060.214 935.855 102.913 43.683-43.684 102.913-102.912-43.684zM1163.127 979.538l102.912 43.684-43.684 102.913-102.912-43.684zM-218.419 514.562l102.913 43.684-43.684 102.912-102.912-43.683zM-115.506 558.246l102.912 43.684-43.684 102.912-102.912-43.684z" stroke-width=".312"/><path fill="none" d="M-12.594 601.93 90.32 645.613 46.635 748.526l-102.913-43.684z" stroke-width=".312"/><path fill="none" d="m90.319 645.613 102.912 43.684-43.684 102.913-102.912-43.684zM193.231 689.297l102.913 43.684-43.684 102.912-102.913-43.683z" stroke-width=".312"/><path fill="none" d="m296.144 732.98 102.912 43.685-43.684 102.912-102.912-43.684z" stroke-width=".312"/><path fill="none" d="m399.056 776.665 102.912 43.683-43.683 102.913-102.913-43.684zM501.968 820.348l102.913 43.684-43.684 102.913-102.912-43.684z" stroke-width=".312"/><path fill="none" d="m604.88 864.032 102.913 43.684-43.683 102.912-102.913-43.683z" stroke-width=".312"/><path fill="none" d="M707.793 907.716 810.706 951.4l-43.684 102.912-102.912-43.684z" stroke-width=".312"/><path fill="none" d="m810.706 951.4 102.912 43.683-43.684 102.913-102.912-43.684z" stroke-width=".312"/><path fill="#ff5e001e" d="m913.618 995.083 102.913 43.684-43.684 102.913-102.913-43.684z" stroke-width=".312"/><path fill="none" d="m1016.53 1038.767 102.913 43.684-43.684 102.912-102.912-43.683z" stroke-width=".312"/><path fill="none" d="m1119.443 1082.45 102.912 43.685-43.683 102.912-102.913-43.684zM-262.102 617.475l102.912 43.683-43.684 102.913-102.912-43.684z" stroke-width=".312"/><path fill="#ff5e0056" d="m-159.19 661.158 102.912 43.684-43.683 102.913-102.913-43.684z" stroke-width=".312"/><path fill="#ff5e006f" d="m-56.278 704.842 102.913 43.684L2.95 851.438-99.96 807.755z" stroke-width=".312"/><path fill="#ff5e006d" d="m46.635 748.526 102.912 43.684-43.683 102.912L2.95 851.438z" stroke-width=".312"/><path fill="none" d="m149.547 792.21 102.913 43.683-43.684 102.913-102.912-43.684z" stroke-width=".312"/><path fill="#ff5e002c" d="m252.46 835.893 102.912 43.684-43.684 102.913-102.912-43.684z" stroke-width=".312"/><path fill="none" d="m355.372 879.577 102.913 43.684-43.684 102.912-102.913-43.683z" stroke-width=".312"/><path fill="#ff5e003e" d="m458.285 923.26 102.912 43.685-43.684 102.912-102.912-43.684z" stroke-width=".312"/><path fill="#ff5e0005" d="m561.197 966.945 102.913 43.683-43.684 102.913-102.913-43.684z" stroke-width=".312"/><path fill="#ff5e0046" d="m664.11 1010.628 102.912 43.684-43.684 102.912-102.912-43.683z" stroke-width=".312"/><path fill="#ff5e0013" d="m767.022 1054.312 102.912 43.684-43.683 102.912-102.913-43.684z" stroke-width=".312"/><path fill="#ff5e0037" d="m869.934 1097.996 102.913 43.684-43.684 102.912-102.912-43.684z" stroke-width=".312"/><path fill="none" d="m972.847 1141.68 102.912 43.683-43.683 102.913-102.913-43.684zM1075.76 1185.363l102.912 43.684-43.684 102.912-102.912-43.683zM-305.786 720.387l102.912 43.684-43.683 102.912L-349.47 823.3z" stroke-width=".312"/><path fill="none" d="m-202.874 764.07 102.913 43.685-43.684 102.912-102.912-43.684z" stroke-width=".312"/><path fill="none" d="M-99.961 807.755 2.95 851.438l-43.684 102.913-102.912-43.684z" stroke-width=".312"/><path fill="#ff5e0063" d="m2.951 851.438 102.913 43.684L62.18 998.035-40.733 954.35z" stroke-width=".312"/><path fill="none" d="m105.864 895.122 102.912 43.684-43.684 102.912L62.18 998.035zM208.776 938.806l102.912 43.684-43.683 102.912-102.913-43.684z" stroke-width=".312"/><path fill="none" d="m311.688 982.49 102.913 43.683-43.684 102.913-102.912-43.684z" stroke-width=".312"/><path fill="none" d="m414.6 1026.173 102.913 43.684-43.683 102.912-102.913-43.683z" stroke-width=".312"/><path fill="#ff5e0036" d="m517.513 1069.857 102.913 43.684-43.684 102.912-102.912-43.684z" stroke-width=".312"/><path fill="none" d="m620.426 1113.54 102.912 43.684-43.683 102.913-102.913-43.684z" stroke-width=".312"/><path fill="#ff5e000e" d="m723.338 1157.224 102.913 43.684-43.684 102.913-102.912-43.684z" stroke-width=".312"/><path fill="none" d="m826.25 1200.908 102.913 43.684-43.684 102.912-102.912-43.683zM929.163 1244.592l102.913 43.684-43.684 102.912-102.913-43.684z" stroke-width=".312"/><path fill="none" d="m1032.076 1288.276 102.912 43.683-43.684 102.913-102.912-43.684z" stroke-width=".312"/></g><defs><radialGradient id="a"><stop offset="0" stop-color="#fff"/><stop offset="1" stop-color="#fff"/></radialGradient></defs></svg>